<svg xmlns="http://www.w3.org/2000/svg" width="620" height="540" viewBox="0 0 620 540" role="img" aria-label="Zoom level 3">
      <rect width="620" height="540" fill="#ffffff"/>
      <text x="70" y="42" font-family="Arial, Helvetica, sans-serif" font-size="22" font-weight="700" fill="#111">Level 3</text>
      <text x="170" y="42" font-family="Arial, Helvetica, sans-serif" font-size="17" fill="#555">625 m × 625 m</text>
      <g><rect x="70" y="70" width="100" height="100" fill="#eeeeee" stroke="#d1d1d1"/><rect x="170" y="70" width="100" height="100" fill="#f7f7f7" stroke="#d1d1d1"/><rect x="270" y="70" width="100" height="100" fill="#eeeeee" stroke="#d1d1d1"/><rect x="370" y="70" width="100" height="100" fill="#f7f7f7" stroke="#d1d1d1"/><rect x="70" y="170" width="100" height="100" fill="#f7f7f7" stroke="#d1d1d1"/><rect x="170" y="170" width="100" height="100" fill="#eeeeee" stroke="#d1d1d1"/><rect x="270" y="170" width="100" height="100" fill="#f7f7f7" stroke="#d1d1d1"/><rect x="370" y="170" width="100" height="100" fill="#eeeeee" stroke="#d1d1d1"/><rect x="70" y="270" width="100" height="100" fill="#eeeeee" stroke="#d1d1d1"/><rect x="170" y="270" width="100" height="100" fill="#f7f7f7" stroke="#d1d1d1"/><rect x="270" y="270" width="100" height="100" fill="#eeeeee" stroke="#d1d1d1"/><rect x="370" y="270" width="100" height="100" fill="#f7f7f7" stroke="#d1d1d1"/><rect x="70" y="370" width="100" height="100" fill="#f7f7f7" stroke="#d1d1d1"/><rect x="170" y="370" width="100" height="100" fill="#eeeeee" stroke="#d1d1d1"/><rect x="270" y="370" width="100" height="100" fill="#f7f7f7" stroke="#d1d1d1"/><rect x="370" y="370" width="100" height="100" fill="#eeeeee" stroke="#d1d1d1"/><path d="M70 186 C190 140 300 181 470 170" stroke="#b3b3b3" stroke-width="18" fill="none" opacity="0.65"/><path d="M180 470 C240 330 320 240 470 190" stroke="#b3b3b3" stroke-width="14" fill="none" opacity="0.65"/><rect x="270" y="270" width="100" height="100" fill="none" stroke="#1f4e79" stroke-width="6"/></g>
      <text x="70" y="508" font-family="Arial, Helvetica, sans-serif" font-size="15" fill="#555">Selected child cell is highlighted. Replace these SVGs with real satellite crops or a GIF/video.</text>
    </svg>